# xmcd CD database file
#
# Track frame offsets:
#	150
#	13455
#	38267
#	51472
#	72150
#	83397
#	100042
#	118435
#	140915
#	164420
#
# Disc length: 2501 seconds
#
# Revision: 0
# Processed by: cddbd v1.5.1PL0 Copyright (c) Steve Scherf et al.
# Submitted via: CDex 1.51
#
DISCID=8809c30a
DTITLE=Ringo Starr and His All Starr Band - Extended Versions
DYEAR=2001
DGENRE=Rock
TTITLE0=Yellow Submarine
TTITLE1=Karn Evil 9 - featuring Greg Lake
TTITLE2=It Don't Come Easy
TTITLE3=I Still Love Rock N' Roll - featuring Ian Hunter
TTITLE4=Act Naturally
TTITLE5=Photograph
TTITLE6=Love Bizarre - featuring Sheila E.
TTITLE7=With A Little Help From My Friends
TTITLE8=Everlasting Love - featuring Howard Jones
TTITLE9=Glamorous Life - featuring Sheila E.
EXTD=YEAR: 2001
EXTT0=
EXTT1=
EXTT2=
EXTT3=
EXTT4=
EXTT5=
EXTT6=
EXTT7=
EXTT8=
EXTT9=
PLAYORDER=
